<svg width="26" height="32" viewBox="0 0 26 32" fill="none" xmlns="http://www.w3.org/2000/svg">
<path fill-rule="evenodd" clip-rule="evenodd" d="M19.008 0.662598C19.2022 2.44348 18.4877 4.22802 17.425 5.51421C16.366 6.79674 14.6218 7.79711 12.9252 7.6652C12.6907 5.92096 13.5518 4.10343 14.5338 2.96748C15.6295 1.68129 17.48 0.724892 19.008 0.662598ZM24.5189 11.0325C24.2669 11.1849 21.2112 13.0339 21.2471 16.8042C21.291 21.3908 25.2694 22.9204 25.3254 22.942L25.3255 22.942C25.3237 22.9476 25.3203 22.9584 25.3154 22.974C25.2249 23.2637 24.6097 25.2319 23.2258 27.266C21.958 29.1165 20.6461 30.9597 18.5758 31C17.5824 31.0179 16.9177 30.7298 16.2269 30.4303C15.5035 30.1167 14.7513 29.7907 13.5629 29.7907C12.3187 29.7907 11.5327 30.126 10.7749 30.4493C10.1178 30.7296 9.48189 31.0009 8.58672 31.0366C6.58597 31.1136 5.06893 29.0359 3.79006 27.1927C1.17737 23.4221 -0.816042 16.5331 1.85894 11.894C3.18911 9.58542 5.56728 8.12334 8.14699 8.08669C9.25868 8.06384 10.335 8.49109 11.2778 8.86533C11.9976 9.15105 12.6395 9.40586 13.1598 9.40586C13.6268 9.40586 14.2521 9.15913 14.9807 8.87158C16.1273 8.41908 17.53 7.86553 18.9752 8.01341C19.9646 8.05371 22.7422 8.41282 24.5304 11.0255C24.5276 11.0272 24.5238 11.0295 24.5189 11.0325Z" fill="#3F6FF9"/>
</svg>
