<svg width="173" height="35" viewBox="0 0 173 35" fill="none" xmlns="http://www.w3.org/2000/svg">
<path fill-rule="evenodd" clip-rule="evenodd" d="M167.04 30.934C164.651 33.0284 161.537 34.2959 158.133 34.2959C150.62 34.2959 144.521 28.1219 144.521 20.5177C144.521 12.9134 150.62 6.73975 158.133 6.73975C161.537 6.73975 164.651 8.00721 167.04 10.1016V7.33909H172.11V33.6966H167.04V30.934ZM158.475 11.7039C163.323 11.7039 167.26 15.6533 167.26 20.5177C167.26 25.3824 163.323 29.3318 158.475 29.3318C153.626 29.3318 149.689 25.3824 149.689 20.5177C149.689 15.6533 153.626 11.7039 158.475 11.7039Z" fill="white"/>
<path fill-rule="evenodd" clip-rule="evenodd" d="M135.805 30.934C133.417 33.0284 130.303 34.2959 126.899 34.2959C119.385 34.2959 113.286 28.1219 113.286 20.5177C113.286 12.9134 119.385 6.73975 126.899 6.73975C130.303 6.73975 133.417 8.00721 135.805 10.1016V7.33909H140.875V33.6966H135.805V30.934ZM127.24 11.7039C132.089 11.7039 136.025 15.6533 136.025 20.5177C136.025 25.3824 132.089 29.3318 127.24 29.3318C122.391 29.3318 118.455 25.3824 118.455 20.5177C118.455 15.6533 122.391 11.7039 127.24 11.7039Z" fill="white"/>
<path fill-rule="evenodd" clip-rule="evenodd" d="M90.4501 9.60868V0.76123H85.3799V33.6952H90.4501V18.1655C90.4501 15.4501 92.6695 11.7026 98.2094 11.7026C102.431 11.7026 104.632 15.1002 104.632 18.2657V33.6952H109.676V17.5786C109.676 12.641 106.321 6.73847 98.7285 6.73847C94.9778 6.73847 92.3528 7.89691 90.4501 9.60868Z" fill="white"/>
<path fill-rule="evenodd" clip-rule="evenodd" d="M77.6169 14.3615L81.578 11.7039C81.578 11.7039 78.337 6.73975 70.329 6.73975C63.4464 6.73975 59.3301 10.1149 59.3301 14.3615C59.3301 25.2594 76.7247 21.4477 76.7247 26.4353C76.7247 28.6156 74.6463 29.6251 70.441 29.5529C64.3226 29.4477 61.7889 25.2905 61.7889 25.2905L57.7433 28.0683C57.7433 28.0683 61.5092 34.2959 70.441 34.2959C76.8384 34.2959 81.9931 31.9153 81.9931 26.4353C81.9931 15.959 64.7113 19.9387 64.7113 14.3615C64.7113 12.2793 67.1397 11.4827 70.441 11.4827C75.5631 11.4827 77.6169 14.3615 77.6169 14.3615Z" fill="white"/>
<path fill-rule="evenodd" clip-rule="evenodd" d="M49.7936 30.934C47.4051 33.0284 44.2911 34.2959 40.8868 34.2959C33.3738 34.2959 27.2744 28.1219 27.2744 20.5177C27.2744 12.9134 33.3738 6.73975 40.8868 6.73975C44.2911 6.73975 47.4051 8.00721 49.7936 10.1016V7.33909H54.8638V33.7011H49.7936V30.934ZM41.2284 11.7039C46.0774 11.7039 50.0141 15.6533 50.0141 20.5177C50.0141 25.3824 46.0774 29.3318 41.2284 29.3318C36.3796 29.3318 32.4428 25.3824 32.4428 20.5177C32.4428 15.6533 36.3796 11.7039 41.2284 11.7039Z" fill="white"/>
<path fill-rule="evenodd" clip-rule="evenodd" d="M25.3793 27.9941C22.9314 31.7852 18.6776 34.2959 13.8439 34.2959C6.26409 34.2959 0.110352 28.1219 0.110352 20.5177C0.110352 12.9134 6.26409 6.73975 13.8439 6.73975C18.6776 6.73975 22.9314 9.25035 25.3793 13.0417L21.2637 15.7984C19.7043 13.3378 16.9628 11.7039 13.8439 11.7039C8.99519 11.7039 5.27893 15.6533 5.27893 20.5177C5.27893 25.3824 8.99519 29.3318 13.8439 29.3318C16.9628 29.3318 19.7043 27.6979 21.2637 25.237L25.3793 27.9941Z" fill="white"/>
</svg>
