<svg width="1102" height="1054" viewBox="0 0 1102 1054" fill="none" xmlns="http://www.w3.org/2000/svg">
<mask id="mask0_4001_3323" style="mask-type:alpha" maskUnits="userSpaceOnUse" x="78" y="0" width="1024" height="1054">
<path d="M187.73 0V1053.43" stroke="#3F6FF9" stroke-width="2.74329"/>
<path d="M1101.25 126.192L78.001 126.192" stroke="#3F6FF9" stroke-width="2.74329"/>
<path d="M322.152 0V1053.43" stroke="#3F6FF9" stroke-width="2.74329"/>
<path d="M1101.25 257.87L78.001 257.87" stroke="#3F6FF9" stroke-width="2.74329"/>
<path d="M456.574 0V1053.43" stroke="#3F6FF9" stroke-width="2.74329"/>
<path d="M1101.25 392.291L78.001 392.291" stroke="#3F6FF9" stroke-width="2.74329"/>
<path d="M590.996 0V1053.43" stroke="#3F6FF9" stroke-width="2.74329"/>
<path d="M1101.25 526.713L78.001 526.713" stroke="#3F6FF9" stroke-width="2.74329"/>
<path d="M722.672 0V1053.43" stroke="#3F6FF9" stroke-width="2.74329"/>
<path d="M1101.25 661.134L78.001 661.134" stroke="#3F6FF9" stroke-width="2.74329"/>
<path d="M857.094 0V1053.43" stroke="#3F6FF9" stroke-width="2.74329"/>
<path d="M1101.25 792.812L78.001 792.812" stroke="#3F6FF9" stroke-width="2.74329"/>
<path d="M991.516 0V1053.43" stroke="#3F6FF9" stroke-width="2.74329"/>
<path d="M1101.25 927.234L78.001 927.234" stroke="#3F6FF9" stroke-width="2.74329"/>
</mask>
<g mask="url(#mask0_4001_3323)">
<g filter="url(#filter0_f_4001_3323)">
<circle cx="588.5" cy="526.5" r="218.5" fill="#3F6FF9"/>
</g>
</g>
<g filter="url(#filter1_f_4001_3323)">
<ellipse cx="524.014" cy="535.357" rx="274.014" ry="257.357" fill="url(#paint0_radial_4001_3323)" fill-opacity="0.9"/>
</g>
<defs>
<filter id="filter0_f_4001_3323" x="-41.4942" y="-103.494" width="1259.99" height="1259.99" filterUnits="userSpaceOnUse" color-interpolation-filters="sRGB">
<feFlood flood-opacity="0" result="BackgroundImageFix"/>
<feBlend mode="normal" in="SourceGraphic" in2="BackgroundImageFix" result="shape"/>
<feGaussianBlur stdDeviation="205.747" result="effect1_foregroundBlur_4001_3323"/>
</filter>
<filter id="filter1_f_4001_3323" x="0" y="28" width="1048.03" height="1014.71" filterUnits="userSpaceOnUse" color-interpolation-filters="sRGB">
<feFlood flood-opacity="0" result="BackgroundImageFix"/>
<feBlend mode="normal" in="SourceGraphic" in2="BackgroundImageFix" result="shape"/>
<feGaussianBlur stdDeviation="125" result="effect1_foregroundBlur_4001_3323"/>
</filter>
<radialGradient id="paint0_radial_4001_3323" cx="0" cy="0" r="1" gradientUnits="userSpaceOnUse" gradientTransform="translate(524.014 535.357) rotate(90) scale(257.357 274.014)">
<stop stop-color="#3F6FF9"/>
<stop offset="1" stop-color="#4675FD" stop-opacity="0.05"/>
</radialGradient>
</defs>
</svg>
