<svg width="47" height="48" viewBox="0 0 47 48" fill="none" xmlns="http://www.w3.org/2000/svg">
<g clip-path="url(#clip0_2175_6594)">
<path d="M9.04622 1.58625C7.98691 0.901748 6.71453 0.694862 5.52108 0.976583L26.4941 21.9497L33.2915 15.1522L9.04622 1.58625Z" fill="#3F6FF9"/>
<path d="M2.91743 2.68018C2.33246 3.45786 1.9958 4.41273 1.9958 5.42282V42.7819C1.9958 43.7921 2.33255 44.7469 2.91743 45.5246L24.3395 24.1025L2.91743 2.68018Z" fill="#3F6FF9"/>
<path d="M42.1628 20.1149L36.0538 16.6968L28.648 24.1025L36.0541 31.5086L42.1638 28.0902C43.6275 27.2701 44.5013 25.7796 44.5013 24.1025C44.5013 22.4255 43.6275 20.935 42.1628 20.1149Z" fill="#3F6FF9"/>
<path d="M26.4968 26.2559L5.52507 47.2276C5.86891 47.3085 6.21884 47.3521 6.56876 47.3521C7.43354 47.3521 8.29532 47.1062 9.04903 46.6192L33.2945 33.0534L26.4968 26.2559Z" fill="#3F6FF9"/>
</g>
<defs>
<clipPath id="clip0_2175_6594">
<rect x="0.000732422" y="0.853027" width="46.4993" height="46.4993" rx="12.2367" fill="white"/>
</clipPath>
</defs>
</svg>
