<svg width="1079" height="1168" viewBox="0 0 1079 1168" fill="none" xmlns="http://www.w3.org/2000/svg">
<mask id="mask0_4001_3322" style="mask-type:alpha" maskUnits="userSpaceOnUse" x="55" y="0" width="1024" height="1054">
<path d="M164.73 0V1053.43" stroke="#3F6FF9" stroke-width="2.74329"/>
<path d="M1078.25 126.192L55.001 126.192" stroke="#3F6FF9" stroke-width="2.74329"/>
<path d="M299.152 0V1053.43" stroke="#3F6FF9" stroke-width="2.74329"/>
<path d="M1078.25 257.87L55.001 257.87" stroke="#3F6FF9" stroke-width="2.74329"/>
<path d="M433.574 0V1053.43" stroke="#3F6FF9" stroke-width="2.74329"/>
<path d="M1078.25 392.291L55.001 392.291" stroke="#3F6FF9" stroke-width="2.74329"/>
<path d="M567.996 0V1053.43" stroke="#3F6FF9" stroke-width="2.74329"/>
<path d="M1078.25 526.713L55.001 526.713" stroke="#3F6FF9" stroke-width="2.74329"/>
<path d="M699.676 0V1053.43" stroke="#3F6FF9" stroke-width="2.74329"/>
<path d="M1078.25 661.134L55.001 661.134" stroke="#3F6FF9" stroke-width="2.74329"/>
<path d="M834.094 0V1053.43" stroke="#3F6FF9" stroke-width="2.74329"/>
<path d="M1078.25 792.812L55.001 792.812" stroke="#3F6FF9" stroke-width="2.74329"/>
<path d="M968.516 0V1053.43" stroke="#3F6FF9" stroke-width="2.74329"/>
<path d="M1078.25 927.234L55.001 927.234" stroke="#3F6FF9" stroke-width="2.74329"/>
</mask>
<g mask="url(#mask0_4001_3322)">
<g filter="url(#filter0_f_4001_3322)">
<circle cx="565.5" cy="526.5" r="218.5" fill="#3F6FF9"/>
</g>
</g>
<g filter="url(#filter1_f_4001_3322)">
<ellipse cx="467" cy="660.5" rx="217" ry="257.5" fill="url(#paint0_radial_4001_3322)" fill-opacity="0.9"/>
</g>
<defs>
<filter id="filter0_f_4001_3322" x="-64.4942" y="-103.494" width="1259.99" height="1259.99" filterUnits="userSpaceOnUse" color-interpolation-filters="sRGB">
<feFlood flood-opacity="0" result="BackgroundImageFix"/>
<feBlend mode="normal" in="SourceGraphic" in2="BackgroundImageFix" result="shape"/>
<feGaussianBlur stdDeviation="205.747" result="effect1_foregroundBlur_4001_3322"/>
</filter>
<filter id="filter1_f_4001_3322" x="0" y="153" width="934" height="1015" filterUnits="userSpaceOnUse" color-interpolation-filters="sRGB">
<feFlood flood-opacity="0" result="BackgroundImageFix"/>
<feBlend mode="normal" in="SourceGraphic" in2="BackgroundImageFix" result="shape"/>
<feGaussianBlur stdDeviation="125" result="effect1_foregroundBlur_4001_3322"/>
</filter>
<radialGradient id="paint0_radial_4001_3322" cx="0" cy="0" r="1" gradientUnits="userSpaceOnUse" gradientTransform="translate(467 660.5) rotate(90) scale(257.5 217)">
<stop stop-color="#3F6FF9"/>
<stop offset="1" stop-color="#4675FD" stop-opacity="0.05"/>
</radialGradient>
</defs>
</svg>
