<svg width="54" height="62" viewBox="0 0 54 62" fill="none" xmlns="http://www.w3.org/2000/svg">
<path d="M43.9689 39.7725V36.2666C43.9689 35.7089 43.5108 35.2507 42.953 35.2507H29.6268C29.0691 35.2507 28.6109 35.7089 28.6109 36.2666V39.7725C28.6109 40.3302 29.0691 40.7884 29.6268 40.7884H42.953C43.5108 40.7884 43.9689 40.3302 43.9689 39.7725Z" fill="#3F6FF9"/>
<path d="M48.0425 28.7368C48.0425 28.1791 47.5844 27.7209 47.0266 27.7209H33.7004C33.1427 27.7209 32.6845 28.1791 32.6845 28.7368V32.2427C32.6845 32.8004 33.1427 33.2586 33.7004 33.2586H47.0167C47.5744 33.2586 48.0326 32.8004 48.0326 32.2427V28.7368H48.0425Z" fill="#3F6FF9"/>
<path d="M30.6926 32.2427V28.7368C30.6926 28.1791 30.2344 27.7209 29.6767 27.7209H16.3605C15.8027 27.7209 15.3446 28.1791 15.3446 28.7368V32.2427C15.3446 32.8004 15.8027 33.2586 16.3605 33.2586H29.6767C30.2344 33.2586 30.6926 32.8004 30.6926 32.2427Z" fill="#3F6FF9"/>
<path d="M12.2769 40.7884H25.5932C26.1509 40.7884 26.6091 40.3302 26.6091 39.7725V36.2666C26.6091 35.7089 26.1509 35.2507 25.5932 35.2507H12.2769C11.7192 35.2507 11.261 35.7089 11.261 36.2666V39.7725C11.261 40.3302 11.7192 40.7884 12.2769 40.7884Z" fill="#3F6FF9"/>
<path d="M32.6845 25.5899C39.009 25.5899 44.1383 20.4606 44.1383 14.1361C44.1383 7.81166 39.009 2.68237 32.6845 2.68237C26.3601 2.68237 21.2308 7.81166 21.2308 14.1361C21.2308 20.4606 26.3601 25.5899 32.6845 25.5899ZM32.6845 15.1321C30.6328 15.1321 28.9596 13.4589 28.9596 11.4071C28.9596 9.70402 30.1149 8.26981 31.6886 7.83158V6.79576C31.6886 6.24797 32.1368 5.79978 32.6845 5.79978C33.2323 5.79978 33.6805 6.24797 33.6805 6.79576V7.83158C35.2442 8.26981 36.4095 9.69406 36.4095 11.4071C36.4095 11.9549 35.9613 12.4031 35.4135 12.4031C34.8657 12.4031 34.4176 11.9549 34.4176 11.4071C34.4176 10.451 33.6407 9.67414 32.6845 9.67414C31.7284 9.67414 30.9515 10.451 30.9515 11.4071C30.9515 12.3633 31.7284 13.1401 32.6845 13.1401C34.7363 13.1401 36.4095 14.8134 36.4095 16.8651C36.4095 18.5682 35.2542 20.0024 33.6805 20.4407V21.4765C33.6805 22.0243 33.2323 22.4725 32.6845 22.4725C32.1368 22.4725 31.6886 22.0243 31.6886 21.4765V20.4407C30.1249 20.0024 28.9596 18.5782 28.9596 16.8651C28.9596 16.3173 29.4078 15.8691 29.9556 15.8691C30.5034 15.8691 30.9515 16.3173 30.9515 16.8651C30.9515 17.8212 31.7284 18.5981 32.6845 18.5981C33.6407 18.5981 34.4176 17.8212 34.4176 16.8651C34.4176 15.909 33.6407 15.1321 32.6845 15.1321Z" fill="#3F6FF9"/>
<path d="M53.1718 46.057C52.375 44.9116 50.8611 44.563 49.646 45.2503L35.8418 52.979C35.035 53.6962 33.9793 54.1244 32.814 54.1244H23.5912C23.0435 54.1244 22.5953 53.6762 22.5953 53.1284C22.5953 52.5807 23.0435 52.1325 23.5912 52.1325H32.814C33.4713 52.1325 34.059 51.8835 34.5171 51.4851C34.547 51.4552 34.5769 51.4253 34.6167 51.3954C35.0948 50.9273 35.3836 50.2799 35.3836 49.5628C35.3836 48.1486 34.2283 46.9932 32.814 46.9932H26.2405C24.6669 46.9932 23.0634 46.5052 21.6092 45.569C20.195 44.6626 18.1034 44.1348 15.8923 44.1348C13.1932 44.1348 10.7033 44.9116 9.40852 46.1566C7.95439 47.5609 5.95248 48.3278 3.77128 48.3278H0.375V61.3154C3.66173 60.4389 7.09785 60.1501 10.2053 60.1501C16.0816 60.1501 20.7726 61.1859 21.0814 61.2556C21.3603 61.2955 21.6989 61.3453 22.0375 61.3851C27.7644 62.0823 33.7701 60.7975 38.9492 57.7597L52.3352 49.9114C52.9925 49.523 53.4407 48.9055 53.61 48.1585C53.7594 47.4414 53.61 46.6845 53.1718 46.057Z" fill="#3F6FF9"/>
<path d="M15.8923 9.26576L16.8982 6.00891L20.1551 5.00297L16.8982 3.98707L15.8923 0.730225L14.8863 3.98707L11.6295 5.00297L14.8863 6.00891L15.8923 9.26576Z" fill="#3F6FF9"/>
<path d="M48.7596 26.1972L49.7655 22.9403L53.0223 21.9344L49.7655 20.9185L48.7596 17.6616L47.7536 20.9185L44.4968 21.9344L47.7536 22.9403L48.7596 26.1972Z" fill="#3F6FF9"/>
<path d="M20.2348 42.7803C21.1511 43.0691 21.9877 43.4376 22.6948 43.8858C23.8303 44.6129 25.0553 44.9913 26.2505 44.9913H30.6925V43.7962C30.6925 43.2384 30.2344 42.7803 29.6766 42.7803H20.2348Z" fill="#3F6FF9"/>
<path d="M37.1864 48.318H40.0747L48.0425 43.856V43.8062C48.0425 43.2484 47.5844 42.7903 47.0266 42.7903H33.7004C33.1427 42.7903 32.6845 43.2484 32.6845 43.8062V45.0014H32.814C34.9056 45.0014 36.6485 46.4057 37.1864 48.318Z" fill="#3F6FF9"/>
</svg>
