<svg width="61" height="61" viewBox="0 0 61 61" fill="none" xmlns="http://www.w3.org/2000/svg">
<path d="M37.6308 3.37386C36.3881 2.1687 34.4637 0.730225 32.3574 0.730225C28.9396 0.730225 26.0008 4.51702 25.6781 4.94968C25.2781 5.48183 25.2146 6.19421 25.5115 6.78987L31.2708 18.4255H43.9901L49.7503 6.78987C50.0472 6.19421 49.9837 5.48183 49.5837 4.94968C49.2609 4.51702 46.322 0.730225 42.9043 0.730225C40.7979 0.730225 38.8736 2.1687 37.6308 3.37386Z" fill="#3F6FF9"/>
<path d="M39.3887 21.9412V22.2433C39.3887 24.9401 40.4821 27.5802 42.3892 29.4873C43.0759 30.1739 43.0759 31.2864 42.3892 31.973C41.7026 32.6596 40.5902 32.6596 39.9036 31.973C39.0058 31.077 38.2436 30.059 37.6307 28.9586C37.018 30.059 36.2558 31.0769 35.3579 31.973C34.6713 32.6596 33.5588 32.6596 32.8722 31.973C32.1856 31.2864 32.1856 30.1739 32.8722 29.4873C34.7796 27.5802 35.873 24.9401 35.873 22.2433V21.9412H29.2869C25.2322 25.7733 21.2091 30.9817 18.5115 36.0037H34.1152C37.0231 36.0037 39.3887 38.3692 39.3887 41.2771V58.9724C39.3887 59.5955 39.261 60.1749 39.0616 60.7302H41.4039C51.5262 60.7302 60.5996 58.4735 60.5996 48.3083C60.5996 40.1759 52.668 28.6001 45.85 21.9412H39.3887Z" fill="#3F6FF9"/>
<path d="M18.2949 51.824C19.2657 51.824 20.0527 51.037 20.0527 50.0662C20.0527 49.0953 19.2657 48.3083 18.2949 48.3083C17.3241 48.3083 16.5371 49.0953 16.5371 50.0662C16.5371 51.037 17.3241 51.824 18.2949 51.824Z" fill="#3F6FF9"/>
<path d="M2.35742 60.7302H34.1152C35.0868 60.7302 35.873 59.944 35.873 58.9724V41.2771C35.873 40.3055 35.0868 39.5193 34.1152 39.5193H2.35742C1.38582 39.5193 0.599609 40.3055 0.599609 41.2771V58.9724C0.599609 59.944 1.38582 60.7302 2.35742 60.7302ZM28.8418 48.3083C29.8126 48.3083 30.5996 49.0951 30.5996 50.0662C30.5996 51.0369 29.8126 51.824 28.8418 51.824C27.871 51.824 27.084 51.0369 27.084 50.0662C27.084 49.0951 27.871 48.3083 28.8418 48.3083ZM18.2949 44.7927C21.2028 44.7927 23.5684 47.1583 23.5684 50.0662C23.5684 52.9741 21.2028 55.3396 18.2949 55.3396C15.387 55.3396 13.0215 52.9741 13.0215 50.0662C13.0215 47.1583 15.387 44.7927 18.2949 44.7927ZM7.74805 48.3083C8.71883 48.3083 9.50586 49.0951 9.50586 50.0662C9.50586 51.0369 8.71883 51.824 7.74805 51.824C6.77727 51.824 5.99023 51.0369 5.99023 50.0662C5.99023 49.0951 6.77727 48.3083 7.74805 48.3083Z" fill="#3F6FF9"/>
</svg>
